# xmcd CD database file
#
# Track frame offsets:
#	225
#	23899
#	45385
#	67263
#	93097
#	119436
#	173439
#	202857
#	226240
#	254267
#
# Disc length: 3665 seconds
#
# Revision: 0
# Processed by: cddbd v1.5.1PL2 Copyright (c) Steve Scherf et al.
# Submitted via: CDex 1.51
#
DISCID=780e4e0a
DTITLE=Peter Sprague - Soliloquy
DYEAR=1996
DGENRE=Jazz
TTITLE0=Simon
TTITLE1=Paco
TTITLE2=Stefanie's Soliloquy
TTITLE3=Cajun
TTITLE4=The Learning Trees Of Havi
TTITLE5=Amadeus
TTITLE6=The Concealed Tear
TTITLE7=Seattle Stomp
TTITLE8=Kylie
TTITLE9=Rama
EXTD=YEAR: 1996
EXTT0=
EXTT1=
EXTT2=
EXTT3=
EXTT4=
EXTT5=
EXTT6=
EXTT7=
EXTT8=
EXTT9=
PLAYORDER=
